<mxfile host="65bd71144e">
    <diagram id="DUKfKug5vApFZQZ7h-Wh" name="Anwendungsdiagramm">
        <mxGraphModel dx="1354" dy="688" grid="1" gridSize="10" guides="1" tooltips="1" connect="1" arrows="1" fold="1" page="1" pageScale="1" pageWidth="1169" pageHeight="827" math="0" shadow="0">
            <root>
                <mxCell id="0"/>
                <mxCell id="1" parent="0"/>
                <mxCell id="34" value="DRAGEES" style="shape=umlFrame;whiteSpace=wrap;html=1;width=90;height=30;" parent="1" vertex="1">
                    <mxGeometry x="110" y="10" width="920" height="800" as="geometry"/>
                </mxCell>
                <mxCell id="2" value="Reiseantrag erstellen&lt;br&gt;Extension point: Änderung &amp;amp; Fahrkarte" style="ellipse;whiteSpace=wrap;html=1;" parent="1" vertex="1">
                    <mxGeometry x="360" y="460" width="140" height="70" as="geometry"/>
                </mxCell>
                <mxCell id="104" style="edgeStyle=none;html=1;exitX=1;exitY=1;exitDx=0;exitDy=0;exitPerimeter=0;endArrow=none;endFill=0;" parent="1" source="6" target="2" edge="1">
                    <mxGeometry relative="1" as="geometry"/>
                </mxCell>
                <mxCell id="105" style="edgeStyle=none;html=1;exitX=0.5;exitY=0.5;exitDx=0;exitDy=0;exitPerimeter=0;endArrow=none;endFill=0;" parent="1" source="6" target="102" edge="1">
                    <mxGeometry relative="1" as="geometry"/>
                </mxCell>
                <mxCell id="109" style="edgeStyle=none;html=1;exitX=1;exitY=0.3333333333333333;exitDx=0;exitDy=0;exitPerimeter=0;endArrow=none;endFill=0;" parent="1" source="6" target="108" edge="1">
                    <mxGeometry relative="1" as="geometry"/>
                </mxCell>
                <mxCell id="127" style="edgeStyle=none;html=1;exitX=0.75;exitY=0.1;exitDx=0;exitDy=0;exitPerimeter=0;endArrow=none;endFill=0;" edge="1" parent="1" source="6" target="126">
                    <mxGeometry relative="1" as="geometry"/>
                </mxCell>
                <mxCell id="141" style="edgeStyle=none;html=1;exitX=1;exitY=0.3333333333333333;exitDx=0;exitDy=0;exitPerimeter=0;endArrow=none;endFill=0;" edge="1" parent="1" source="6" target="140">
                    <mxGeometry relative="1" as="geometry"/>
                </mxCell>
                <mxCell id="147" style="edgeStyle=none;html=1;exitX=1;exitY=0.3333333333333333;exitDx=0;exitDy=0;exitPerimeter=0;endArrow=none;endFill=0;" edge="1" parent="1" source="6" target="146">
                    <mxGeometry relative="1" as="geometry"/>
                </mxCell>
                <mxCell id="6" value="Antragsteller" style="shape=umlActor;verticalLabelPosition=bottom;verticalAlign=top;html=1;" parent="1" vertex="1">
                    <mxGeometry x="39" y="235" width="30" height="60" as="geometry"/>
                </mxCell>
                <mxCell id="13" value="Benachrichtigung an&amp;nbsp;&lt;br&gt;Vorgesetzten &amp;amp;&amp;nbsp;&lt;br&gt;Verantwortlichen" style="ellipse;whiteSpace=wrap;html=1;" parent="1" vertex="1">
                    <mxGeometry x="840" y="690" width="140" height="70" as="geometry"/>
                </mxCell>
                <mxCell id="56" style="edgeStyle=none;html=1;exitX=0;exitY=1;exitDx=0;exitDy=0;exitPerimeter=0;endArrow=none;endFill=0;" parent="1" source="14" target="19" edge="1">
                    <mxGeometry relative="1" as="geometry"/>
                </mxCell>
                <mxCell id="14" value="Vorgesetzter" style="shape=umlActor;verticalLabelPosition=bottom;verticalAlign=top;html=1;" parent="1" vertex="1">
                    <mxGeometry x="1083" y="530" width="30" height="60" as="geometry"/>
                </mxCell>
                <mxCell id="53" style="edgeStyle=none;html=1;exitX=0;exitY=1;exitDx=0;exitDy=0;exitPerimeter=0;endArrow=none;endFill=0;" parent="1" source="15" target="19" edge="1">
                    <mxGeometry relative="1" as="geometry"/>
                </mxCell>
                <mxCell id="15" value="Kostenstellen&lt;br&gt;verantwortlicher" style="shape=umlActor;verticalLabelPosition=bottom;verticalAlign=top;html=1;" parent="1" vertex="1">
                    <mxGeometry x="1083" y="380" width="30" height="60" as="geometry"/>
                </mxCell>
                <mxCell id="19" value="Genehmigung&lt;br&gt;einholen" style="ellipse;whiteSpace=wrap;html=1;" parent="1" vertex="1">
                    <mxGeometry x="840" y="525" width="140" height="70" as="geometry"/>
                </mxCell>
                <mxCell id="144" style="edgeStyle=none;html=1;exitX=0.5;exitY=0.5;exitDx=0;exitDy=0;exitPerimeter=0;endArrow=none;endFill=0;" edge="1" parent="1" source="62" target="80">
                    <mxGeometry relative="1" as="geometry"/>
                </mxCell>
                <mxCell id="62" value="Reisebüro&lt;br&gt;(Hochschulintern)" style="shape=umlActor;verticalLabelPosition=bottom;verticalAlign=top;html=1;" parent="1" vertex="1">
                    <mxGeometry x="39" y="670" width="30" height="60" as="geometry"/>
                </mxCell>
                <mxCell id="71" value="Dienstantrag&amp;nbsp;&lt;br&gt;ändern oder&amp;nbsp;&lt;br&gt;zurückziehen" style="ellipse;whiteSpace=wrap;html=1;" parent="1" vertex="1">
                    <mxGeometry x="201" y="632" width="140" height="70" as="geometry"/>
                </mxCell>
                <mxCell id="80" value="Beantragung&amp;nbsp;&lt;br&gt;Bahnfahrkarte" style="ellipse;whiteSpace=wrap;html=1;" parent="1" vertex="1">
                    <mxGeometry x="390" y="710" width="140" height="70" as="geometry"/>
                </mxCell>
                <mxCell id="142" style="edgeStyle=none;html=1;exitX=1;exitY=0.3333333333333333;exitDx=0;exitDy=0;exitPerimeter=0;endArrow=none;endFill=0;" edge="1" parent="1" source="94" target="126">
                    <mxGeometry relative="1" as="geometry"/>
                </mxCell>
                <mxCell id="143" style="edgeStyle=none;html=1;exitX=1;exitY=1;exitDx=0;exitDy=0;exitPerimeter=0;endArrow=none;endFill=0;entryX=0;entryY=0;entryDx=0;entryDy=0;" edge="1" parent="1" source="94" target="140">
                    <mxGeometry relative="1" as="geometry"/>
                </mxCell>
                <mxCell id="94" value="Haushaltsstelle" style="shape=umlActor;verticalLabelPosition=bottom;verticalAlign=top;html=1;" parent="1" vertex="1">
                    <mxGeometry x="39" y="70" width="30" height="60" as="geometry"/>
                </mxCell>
                <mxCell id="99" value="&amp;lt;&amp;lt;includes&amp;gt;&amp;gt;" style="endArrow=open;endSize=12;dashed=1;html=1;" parent="1" source="19" target="13" edge="1">
                    <mxGeometry width="160" relative="1" as="geometry">
                        <mxPoint x="470" y="540" as="sourcePoint"/>
                        <mxPoint x="630" y="540" as="targetPoint"/>
                    </mxGeometry>
                </mxCell>
                <mxCell id="102" value="Daten erfassen&amp;nbsp;&lt;br&gt;Datum, Ort, Kosten" style="ellipse;whiteSpace=wrap;html=1;" parent="1" vertex="1">
                    <mxGeometry x="260" y="330" width="140" height="70" as="geometry"/>
                </mxCell>
                <mxCell id="107" value="&amp;lt;&amp;lt;includes&amp;gt;&amp;gt;" style="endArrow=open;endSize=12;dashed=1;html=1;" parent="1" source="2" target="102" edge="1">
                    <mxGeometry width="160" relative="1" as="geometry">
                        <mxPoint x="450" y="345" as="sourcePoint"/>
                        <mxPoint x="610" y="345" as="targetPoint"/>
                    </mxGeometry>
                </mxCell>
                <mxCell id="108" value="Über das Ergebnis&amp;nbsp;&lt;br&gt;informieren" style="ellipse;whiteSpace=wrap;html=1;" parent="1" vertex="1">
                    <mxGeometry x="670" y="360" width="140" height="70" as="geometry"/>
                </mxCell>
                <mxCell id="110" value="&amp;lt;&amp;lt;includes&amp;gt;&amp;gt;" style="endArrow=open;endSize=12;dashed=1;html=1;" parent="1" source="2" target="19" edge="1">
                    <mxGeometry width="160" relative="1" as="geometry">
                        <mxPoint x="550" y="290" as="sourcePoint"/>
                        <mxPoint x="710" y="290" as="targetPoint"/>
                    </mxGeometry>
                </mxCell>
                <mxCell id="111" value="&amp;lt;&amp;lt;includes&amp;gt;&amp;gt;" style="endArrow=open;endSize=12;dashed=1;html=1;" edge="1" parent="1" source="108" target="19">
                    <mxGeometry width="160" relative="1" as="geometry">
                        <mxPoint x="610" y="320" as="sourcePoint"/>
                        <mxPoint x="770" y="320" as="targetPoint"/>
                    </mxGeometry>
                </mxCell>
                <mxCell id="118" value="" style="edgeStyle=none;html=1;endArrow=none;endFill=0;entryX=1;entryY=0.5;entryDx=0;entryDy=0;" edge="1" parent="1" source="114" target="119">
                    <mxGeometry relative="1" as="geometry">
                        <mxPoint x="341" y="592" as="targetPoint"/>
                    </mxGeometry>
                </mxCell>
                <mxCell id="114" value="Condition: (Antragsende == Abänderung Antrag)&lt;br&gt;Extension point: Änderung und Zurückziehen" style="shape=note;whiteSpace=wrap;html=1;backgroundOutline=1;darkOpacity=0.05;direction=east;" vertex="1" parent="1">
                    <mxGeometry x="176" y="489" width="115" height="112.5" as="geometry"/>
                </mxCell>
                <mxCell id="115" value="&amp;lt;&amp;lt;extend&amp;gt;&amp;gt;" style="endArrow=open;endSize=12;dashed=1;html=1;startArrow=none;" edge="1" parent="1" source="119" target="2">
                    <mxGeometry width="160" relative="1" as="geometry">
                        <mxPoint x="261" y="542" as="sourcePoint"/>
                        <mxPoint x="421" y="542" as="targetPoint"/>
                    </mxGeometry>
                </mxCell>
                <mxCell id="119" value="" style="ellipse;whiteSpace=wrap;html=1;aspect=fixed;" vertex="1" parent="1">
                    <mxGeometry x="331" y="592" width="10" height="10" as="geometry"/>
                </mxCell>
                <mxCell id="120" value="" style="endArrow=none;endSize=12;dashed=1;html=1;" edge="1" parent="1" source="71" target="119">
                    <mxGeometry width="160" relative="1" as="geometry">
                        <mxPoint x="301.6701603319592" y="635.538351659474" as="sourcePoint"/>
                        <mxPoint x="430.3593024835169" y="503.4688244763879" as="targetPoint"/>
                    </mxGeometry>
                </mxCell>
                <mxCell id="121" value="&amp;lt;&amp;lt;extend&amp;gt;&amp;gt;" style="endArrow=open;endSize=12;dashed=1;html=1;startArrow=none;entryX=0.5;entryY=1;entryDx=0;entryDy=0;" edge="1" parent="1" source="123" target="2">
                    <mxGeometry width="160" relative="1" as="geometry">
                        <mxPoint x="349.53553390591844" y="603.4644660940816" as="sourcePoint"/>
                        <mxPoint x="439.69504831499955" y="513.3049516850004" as="targetPoint"/>
                    </mxGeometry>
                </mxCell>
                <mxCell id="122" value="Condition: (Dienstreisende == Bahnfahrkarte anfordern)&lt;br&gt;Extension point: Beantragung&amp;nbsp;&lt;br&gt;Bahnkarte" style="shape=note;whiteSpace=wrap;html=1;backgroundOutline=1;darkOpacity=0.05;direction=east;" vertex="1" parent="1">
                    <mxGeometry x="511" y="584" width="114" height="126" as="geometry"/>
                </mxCell>
                <mxCell id="123" value="" style="ellipse;whiteSpace=wrap;html=1;aspect=fixed;" vertex="1" parent="1">
                    <mxGeometry x="440" y="632" width="10" height="10" as="geometry"/>
                </mxCell>
                <mxCell id="124" value="" style="endArrow=none;endSize=12;dashed=1;html=1;startArrow=none;entryX=0.5;entryY=1;entryDx=0;entryDy=0;" edge="1" parent="1" source="80" target="123">
                    <mxGeometry width="160" relative="1" as="geometry">
                        <mxPoint x="460" y="640" as="sourcePoint"/>
                        <mxPoint x="460" y="475" as="targetPoint"/>
                    </mxGeometry>
                </mxCell>
                <mxCell id="125" value="" style="edgeStyle=none;html=1;endArrow=none;endFill=0;exitX=1;exitY=0.5;exitDx=0;exitDy=0;" edge="1" parent="1" source="123" target="122">
                    <mxGeometry relative="1" as="geometry">
                        <mxPoint x="491" y="665.9302325581423" as="sourcePoint"/>
                        <mxPoint x="540.9999999999898" y="690" as="targetPoint"/>
                    </mxGeometry>
                </mxCell>
                <mxCell id="126" value="Erstattungsantrag" style="ellipse;whiteSpace=wrap;html=1;" vertex="1" parent="1">
                    <mxGeometry x="220" y="30" width="140" height="70" as="geometry"/>
                </mxCell>
                <mxCell id="128" value="Belege beifügen" style="ellipse;whiteSpace=wrap;html=1;" vertex="1" parent="1">
                    <mxGeometry x="740" y="30" width="140" height="70" as="geometry"/>
                </mxCell>
                <mxCell id="130" value="Condition: (Dienstreisende == Belege beifügen)&lt;br&gt;Extension point: Belege beifügen" style="shape=note;whiteSpace=wrap;html=1;backgroundOutline=1;darkOpacity=0.05;direction=east;" vertex="1" parent="1">
                    <mxGeometry x="680" y="110" width="320" height="40" as="geometry"/>
                </mxCell>
                <mxCell id="133" style="edgeStyle=none;html=1;exitX=1;exitY=1;exitDx=0;exitDy=0;entryX=0;entryY=0;entryDx=0;entryDy=0;entryPerimeter=0;endArrow=none;endFill=0;" edge="1" parent="1" target="130">
                    <mxGeometry relative="1" as="geometry">
                        <mxPoint x="508.53553390593265" y="68.53553390593282" as="sourcePoint"/>
                    </mxGeometry>
                </mxCell>
                <mxCell id="140" value="Abrechnungsbescheid&lt;br&gt;einsehbar&lt;br&gt;Extension point:&amp;nbsp;&lt;br&gt;Bescheid drucken" style="ellipse;whiteSpace=wrap;html=1;" vertex="1" parent="1">
                    <mxGeometry x="250" y="145" width="160" height="90" as="geometry"/>
                </mxCell>
                <mxCell id="146" value="Abrechnungsbescheid&lt;br&gt;drucken" style="ellipse;whiteSpace=wrap;html=1;" vertex="1" parent="1">
                    <mxGeometry x="660" y="260" width="140" height="70" as="geometry"/>
                </mxCell>
                <mxCell id="156" style="edgeStyle=none;html=1;exitX=0;exitY=0.5;exitDx=0;exitDy=0;exitPerimeter=0;entryX=1;entryY=0;entryDx=0;entryDy=0;endArrow=none;endFill=0;" edge="1" parent="1" source="148" target="154">
                    <mxGeometry relative="1" as="geometry"/>
                </mxCell>
                <mxCell id="148" value="Condition: (Personal == Dienstreisender)&lt;br&gt;Extension point: Bescheid drucken" style="shape=note;whiteSpace=wrap;html=1;backgroundOutline=1;darkOpacity=0.05;direction=east;" vertex="1" parent="1">
                    <mxGeometry x="620" y="180" width="280" height="40" as="geometry"/>
                </mxCell>
                <mxCell id="150" value="&amp;lt;&amp;lt;extend&amp;gt;&amp;gt;" style="endArrow=open;endSize=12;dashed=1;html=1;startArrow=none;" edge="1" parent="1" source="151" target="126">
                    <mxGeometry width="160" relative="1" as="geometry">
                        <mxPoint x="490" y="50" as="sourcePoint"/>
                        <mxPoint x="650" y="50" as="targetPoint"/>
                    </mxGeometry>
                </mxCell>
                <mxCell id="151" value="" style="ellipse;whiteSpace=wrap;html=1;aspect=fixed;" vertex="1" parent="1">
                    <mxGeometry x="500" y="60" width="10" height="10" as="geometry"/>
                </mxCell>
                <mxCell id="152" value="" style="endArrow=none;endSize=12;dashed=1;html=1;" edge="1" parent="1" source="128" target="151">
                    <mxGeometry width="160" relative="1" as="geometry">
                        <mxPoint x="739.999999999997" y="64.99999999999994" as="sourcePoint"/>
                        <mxPoint x="360" y="64.99999999999994" as="targetPoint"/>
                    </mxGeometry>
                </mxCell>
                <mxCell id="153" value="&amp;lt;&amp;lt;extend&amp;gt;&amp;gt;" style="endArrow=open;endSize=12;dashed=1;html=1;startArrow=none;" edge="1" parent="1" source="154" target="140">
                    <mxGeometry width="160" relative="1" as="geometry">
                        <mxPoint x="450" y="220" as="sourcePoint"/>
                        <mxPoint x="610" y="220" as="targetPoint"/>
                    </mxGeometry>
                </mxCell>
                <mxCell id="154" value="" style="ellipse;whiteSpace=wrap;html=1;aspect=fixed;" vertex="1" parent="1">
                    <mxGeometry x="540" y="235" width="10" height="10" as="geometry"/>
                </mxCell>
                <mxCell id="155" value="" style="endArrow=none;endSize=12;dashed=1;html=1;" edge="1" parent="1" source="146" target="154">
                    <mxGeometry width="160" relative="1" as="geometry">
                        <mxPoint x="633.5558980770741" y="268.8134318945205" as="sourcePoint"/>
                        <mxPoint x="478.5442433374153" y="190.2163460814491" as="targetPoint"/>
                    </mxGeometry>
                </mxCell>
            </root>
        </mxGraphModel>
    </diagram>
</mxfile>